HIERARCHY
ROOT hip
{
	OFFSET 0.000000 0.000000 0.000000 
	CHANNELS 6 Xposition Yposition Zposition Xrotation Zrotation Yrotation
	JOINT abdomen
	{
		OFFSET 0.000000 3.402643 0.000000 
		CHANNELS 3 Xrotation Zrotation Yrotation
		JOINT chest
		{
			OFFSET 0.000000 8.438565 -0.680529 
			CHANNELS 3 Xrotation Zrotation Yrotation
			JOINT neck
			{
				OFFSET 0.000000 10.207942 -0.272212 
				CHANNELS 3 Xrotation Zrotation Yrotation
				JOINT head
				{
					OFFSET 0.000000 3.130431 0.000000 
					CHANNELS 3 Xrotation Zrotation Yrotation
					End Site
					{
						OFFSET 0.000000 3.130435 0.000000 
					}
				}
			}
			JOINT lCollar
			{
				OFFSET 3.470700 6.669187 -0.816635 
				CHANNELS 3 Yrotation Zrotation Xrotation
				JOINT lShldr
				{
					OFFSET 3.198488 0.000000 0.000000 
					CHANNELS 3 Zrotation Yrotation Xrotation
					JOINT lForeArm
					{
						OFFSET 10.139888 0.000000 0.000000 
						CHANNELS 3 Yrotation Zrotation Xrotation
						JOINT lHand
						{
							OFFSET 8.370511 0.000000 0.000000 
							CHANNELS 3 Zrotation Yrotation Xrotation
							End Site
							{
								OFFSET 4.083176 0.000000 0.000000 
							}
						}
					}
				}
			}
			JOINT rCollar
			{
				OFFSET -3.470700 6.669187 -0.816635 
				CHANNELS 3 Yrotation Zrotation Xrotation
				JOINT rShldr
				{
					OFFSET -3.198488 0.000000 0.000000 
					CHANNELS 3 Zrotation Yrotation Xrotation
					JOINT rForeArm
					{
						OFFSET -10.139888 0.000000 0.000000 
						CHANNELS 3 Yrotation Zrotation Xrotation
						JOINT rHand
						{
							OFFSET -8.370511 0.000000 0.000000 
							CHANNELS 3 Zrotation Yrotation Xrotation
							End Site
							{
								OFFSET -4.083176 0.000000 0.000000 
							}
						}
					}
				}
			}
		}
	}
	JOINT lThigh
	{
		OFFSET 5.308129 -1.633274 1.361059 
		CHANNELS 3 Xrotation Zrotation Yrotation
		JOINT lShin
		{
			OFFSET -2.041588 -20.007561 0.000000 
			CHANNELS 3 Xrotation Zrotation Yrotation
			JOINT lFoot
			{
				OFFSET 0.000000 -19.190928 -1.224953 
				CHANNELS 3 Xrotation Yrotation Zrotation
				End Site
				{
					OFFSET 0.000000 -2.449906 4.627600 
				}
			}
		}
	}
	JOINT rThigh
	{
		OFFSET -5.308129 -1.633274 1.361059 
		CHANNELS 3 Xrotation Zrotation Yrotation
		JOINT rShin
		{
			OFFSET 2.041588 -20.007561 0.000000 
			CHANNELS 3 Xrotation Zrotation Yrotation
			JOINT rFoot
			{
				OFFSET 0.000000 -19.190928 -1.224953 
				CHANNELS 3 Xrotation Yrotation Zrotation
				End Site
				{
					OFFSET 0.000000 -2.449906 4.627600 
				}
			}
		}
	}
}
MOTION
Frames: 8
Frame Time: 0.033333
-30.880224 49.454762 -244.684967 25.317440 16.914717 127.887108 36.709667 -9.213349 -0.625985 -20.839844 0.000000 0.000000 -8.494349 0.443662 24.670156 -2.520846 -1.255050 0.218350 -4.754607 -0.109226 -0.002657 -11.083492 9.138411 -14.867853 -6.309952 -11.478968 13.315475 13.403134 -17.469112 -6.812396 4.754607 0.109226 -0.002676 -21.771275 1.593165 -59.694302 71.969887 -34.116585 0.161637 5.255427 -13.418118 15.571144 22.183489 5.908429 14.164310 35.418480 -14.198637 0.532459 25.804468 -16.056982 -2.692898 9.712675 -2.478772 7.593637 47.366516 -12.378732 -4.771013 -12.595387 -22.565344 6.771166 
-31.576756 50.212196 -248.345871 26.361504 14.192460 135.747421 38.001022 -11.389759 -1.635467 -20.839844 0.000000 0.000000 -5.681273 0.842859 25.463631 -2.520846 -1.255050 0.218350 -4.754607 -0.109226 -0.002657 -18.395508 2.860775 -12.956773 -10.391119 -10.280886 17.455019 12.114062 -18.694668 -2.464742 4.754607 0.109226 -0.002676 -20.186146 4.336279 -57.546230 76.178619 -30.535765 3.196980 3.788863 -13.507754 15.394826 17.097586 8.183145 12.674363 40.526875 -11.743426 -1.428865 20.563282 -12.553900 -6.262353 8.289330 0.771617 7.536273 44.565041 -9.448643 -3.539608 -9.553666 -17.897058 10.287477 
-32.342342 50.409698 -251.892014 26.130075 11.407285 142.573349 39.320595 -13.018857 -1.919947 -20.839844 0.000000 0.000000 -4.032432 1.281469 24.503338 -2.520846 -1.255050 0.218350 -4.754607 -0.109226 -0.002657 -25.663191 -2.219844 -9.737881 -14.241878 -10.110802 22.328951 11.770549 -20.296154 1.495753 4.754607 0.109226 -0.002676 -17.033394 6.101921 -54.525631 79.527794 -26.900352 5.511042 2.693857 -12.105446 15.398580 10.514757 12.527457 14.087540 44.352272 -10.522600 -2.167358 12.153082 -9.926339 -6.776794 4.482056 0.332547 3.994020 42.689182 -4.475093 -1.033226 -9.530549 -10.115581 14.744343 
-33.119595 50.051785 -255.402115 25.529005 8.420548 148.933472 41.085041 -14.321208 -2.526198 -20.839844 0.000000 0.000000 -3.539412 1.562204 22.570759 -2.520846 -1.255050 0.218350 -4.754607 -0.109226 -0.002657 -33.620762 -4.767427 -5.735559 -17.419632 -10.036112 26.573509 12.103261 -21.282267 4.322773 4.754607 0.109226 -0.002676 -12.842375 9.036969 -52.293793 81.097832 -24.286919 7.667790 3.845346 -10.940261 16.868307 3.258510 17.092657 16.805199 45.872540 -11.107803 -2.496582 3.140334 -10.074450 -5.353068 1.166684 -1.350526 0.889522 41.140614 -0.455558 0.902126 -9.267118 -4.685521 19.887749 
-33.853699 49.132370 -258.993469 24.663515 5.532582 154.888794 42.846230 -15.104267 -3.136704 -20.839844 0.000000 0.000000 -3.431581 1.717686 20.395277 -2.520846 -1.255050 0.218350 -4.754607 -0.109226 -0.002657 -42.066101 -4.598221 -2.141079 -18.795504 -10.004152 29.845779 12.599906 -21.288626 6.791609 4.754607 0.109226 -0.002676 -7.686444 11.326456 -49.029484 81.632149 -21.110695 9.422749 4.385289 -11.100286 18.363680 -4.092449 20.671946 19.337925 46.018246 -12.913382 -2.022727 -5.743392 -11.184457 -4.749505 -0.506206 -2.179972 -0.182837 39.460964 1.162188 1.636865 -7.138046 -2.362385 22.032616 
-34.502514 47.565666 -262.874725 23.999495 3.381980 160.108276 44.198364 -15.403652 -2.924117 -20.839844 0.000000 0.000000 -2.653534 1.621913 18.209982 -2.520846 -1.255050 0.218350 -4.754607 -0.109226 -0.002657 -49.872158 -2.471817 0.658103 -17.638693 -10.288947 32.510197 13.083838 -21.496662 8.390676 4.754607 0.109226 -0.002676 -1.588669 12.503941 -44.002426 82.034355 -16.460709 10.789537 3.016056 -11.877543 19.247168 -9.297248 23.706734 22.882763 45.321087 -16.020123 -0.926332 -14.078308 -13.265170 -6.614211 0.106993 -1.728816 0.182922 39.292904 1.146017 1.166234 -6.522890 -2.749696 18.286629 
-35.123913 45.292282 -267.189545 24.198980 2.218190 164.844162 45.233997 -15.037020 -1.350321 -20.839844 0.000000 0.000000 -1.312738 1.036237 16.059536 -2.520846 -1.255050 0.218350 -4.754607 -0.109226 -0.002657 -56.859962 1.397308 2.266137 -14.743660 -9.986137 34.413071 13.149344 -22.403799 9.156046 4.754607 0.109226 -0.002676 5.360164 12.830606 -37.817566 82.061172 -10.847387 12.125131 1.220015 -11.722507 20.489410 -11.093911 25.924711 26.239544 44.348427 -20.011658 -1.037473 -22.083416 -16.157562 -10.904752 2.573125 -1.304823 0.182396 44.118835 2.017313 -1.059270 -13.981986 -5.354722 6.825998 
-35.867672 42.573654 -271.812012 24.961626 2.231307 169.349182 45.684067 -13.221547 2.268839 -20.839844 0.000000 0.000000 -0.312226 -0.175501 14.475887 -2.520846 -1.255050 0.218350 -4.754607 -0.109226 -0.002657 -63.023766 6.578075 2.235298 -10.618375 -9.178531 34.567875 13.249023 -22.764338 8.587951 4.754607 0.109226 -0.002676 12.720051 12.098880 -31.423780 80.890938 -5.369741 14.323609 -0.171530 -10.351142 22.427370 -12.021729 26.321974 26.854450 45.361599 -21.084896 0.130270 -25.089560 -14.626526 -10.324343 5.751097 -2.763703 -2.036469 54.016663 4.681700 -2.487642 -26.064783 -5.797229 -1.777450 
